<svg xmlns="http://www.w3.org/2000/svg" width="500" height="600" viewBox="0 0 500 600">
  <defs>
    <linearGradient id="planetGradient" x1="0%" y1="0%" x2="100%" y2="100%">
      <stop offset="0%" style="stop-color:#6a11cb;stop-opacity:1" />
      <stop offset="100%" style="stop-color:#2575fc;stop-opacity:1" />
    </linearGradient>
    <radialGradient id="glowGradient" cx="50%" cy="50%" r="50%" fx="50%" fy="50%">
      <stop offset="0%" style="stop-color:white;stop-opacity:0.8" />
      <stop offset="100%" style="stop-color:white;stop-opacity:0" />
    </radialGradient>
  </defs>
  
  <!-- Background stars -->
  <circle cx="50" cy="80" r="1.5" fill="white" opacity="0.8" />
  <circle cx="120" cy="40" r="1" fill="white" opacity="0.6" />
  <circle cx="200" cy="60" r="1.2" fill="white" opacity="0.7" />
  <circle cx="280" cy="30" r="1" fill="white" opacity="0.5" />
  <circle cx="350" cy="70" r="1.3" fill="white" opacity="0.7" />
  <circle cx="420" cy="50" r="1" fill="white" opacity="0.6" />
  <circle cx="80" cy="150" r="1" fill="white" opacity="0.5" />
  <circle cx="150" cy="120" r="1.2" fill="white" opacity="0.7" />
  <circle cx="250" cy="140" r="1" fill="white" opacity="0.6" />
  <circle cx="320" cy="130" r="1.5" fill="white" opacity="0.8" />
  <circle cx="400" cy="160" r="1" fill="white" opacity="0.5" />
  <circle cx="30" cy="200" r="1.2" fill="white" opacity="0.7" />
  <circle cx="100" cy="220" r="1" fill="white" opacity="0.6" />
  <circle cx="180" cy="190" r="1.3" fill="white" opacity="0.7" />
  <circle cx="270" cy="210" r="1" fill="white" opacity="0.5" />
  <circle cx="340" cy="180" r="1.2" fill="white" opacity="0.7" />
  <circle cx="430" cy="230" r="1.5" fill="white" opacity="0.8" />
  
  <!-- Planet -->
  <circle cx="400" cy="100" r="40" fill="url(#planetGradient)" />
  <circle cx="380" cy="85" r="10" fill="#9c88ff" opacity="0.5" />
  <circle cx="410" cy="110" r="8" fill="#9c88ff" opacity="0.4" />
  
  <!-- Moon surface -->
  <path d="M0,450 C100,420 200,440 300,430 C400,420 500,450 500,450 L500,600 L0,600 Z" fill="#c471ed" opacity="0.8" />
  <path d="M0,480 C80,460 160,470 240,460 C320,450 400,470 500,480 L500,600 L0,600 Z" fill="#f64f59" opacity="0.6" />
  
  <!-- Craters -->
  <circle cx="100" cy="500" r="15" fill="#c471ed" opacity="0.7" />
  <circle cx="300" cy="520" r="20" fill="#c471ed" opacity="0.7" />
  <circle cx="420" cy="490" r="12" fill="#c471ed" opacity="0.7" />
  
  <!-- Astronaut -->
  <g transform="translate(250, 350) scale(0.8)">
    <!-- Astronaut body -->
    <rect x="-40" y="-20" width="80" height="120" rx="40" fill="white" />
    
    <!-- Helmet -->
    <circle cx="0" cy="-50" r="40" fill="white" />
    <circle cx="0" cy="-50" r="35" fill="#1a1a2e" />
    <circle cx="-15" cy="-55" r="5" fill="white" opacity="0.3" />
    
    <!-- Backpack -->
    <rect x="-50" y="-10" width="20" height="60" rx="10" fill="#e0e0e0" />
    <rect x="30" y="-10" width="20" height="60" rx="10" fill="#e0e0e0" />
    
    <!-- Arms -->
    <rect x="-70" y="0" width="30" height="20" rx="10" fill="white" />
    <rect x="40" y="0" width="30" height="20" rx="10" fill="white" />
    
    <!-- Legs -->
    <rect x="-30" y="100" width="20" height="40" rx="10" fill="white" />
    <rect x="10" y="100" width="20" height="40" rx="10" fill="white" />
    
    <!-- Boots -->
    <rect x="-35" y="140" width="30" height="15" rx="7" fill="#e0e0e0" />
    <rect x="5" y="140" width="30" height="15" rx="7" fill="#e0e0e0" />
    
    <!-- Visor reflection -->
    <path d="M-20,-65 C-10,-75 10,-75 20,-65 C30,-55 30,-45 20,-35 C10,-25 -10,-25 -20,-35 C-30,-45 -30,-55 -20,-65 Z" fill="url(#glowGradient)" />
  </g>
  
  <!-- Floating particles -->
  <circle cx="150" cy="300" r="3" fill="white" opacity="0.8">
    <animate attributeName="cy" from="300" to="280" dur="3s" repeatCount="indefinite" />
  </circle>
  <circle cx="350" cy="320" r="2" fill="white" opacity="0.6">
    <animate attributeName="cy" from="320" to="300" dur="4s" repeatCount="indefinite" />
  </circle>
  <circle cx="200" cy="400" r="2.5" fill="white" opacity="0.7">
    <animate attributeName="cy" from="400" to="380" dur="3.5s" repeatCount="indefinite" />
  </circle>
</svg>