<svg xmlns="http://www.w3.org/2000/svg" width="500" height="300" viewBox="0 0 500 300">
  <defs>
    <linearGradient id="grad1" x1="0%" y1="0%" x2="100%" y2="100%">
      <stop offset="0%" style="stop-color:#6c5ce7;stop-opacity:1" />
      <stop offset="100%" style="stop-color:#fd79a8;stop-opacity:1" />
    </linearGradient>
  </defs>
  <rect width="500" height="300" rx="15" fill="url(#grad1)"/>
  
  <!-- People icons representing crowd -->
  <circle cx="150" cy="100" r="15" fill="#ffffff" opacity="0.9"/>
  <circle cx="200" cy="120" r="15" fill="#ffffff" opacity="0.8"/>
  <circle cx="250" cy="90" r="15" fill="#ffffff" opacity="0.9"/>
  <circle cx="300" cy="110" r="15" fill="#ffffff" opacity="0.8"/>
  <circle cx="350" cy="100" r="15" fill="#ffffff" opacity="0.9"/>
  
  <circle cx="130" cy="150" r="15" fill="#ffffff" opacity="0.7"/>
  <circle cx="180" cy="170" r="15" fill="#ffffff" opacity="0.9"/>
  <circle cx="230" cy="150" r="15" fill="#ffffff" opacity="0.8"/>
  <circle cx="280" cy="160" r="15" fill="#ffffff" opacity="0.9"/>
  <circle cx="330" cy="150" r="15" fill="#ffffff" opacity="0.7"/>
  <circle cx="380" cy="170" r="15" fill="#ffffff" opacity="0.8"/>
  
  <circle cx="150" cy="210" r="15" fill="#ffffff" opacity="0.8"/>
  <circle cx="200" cy="200" r="15" fill="#ffffff" opacity="0.7"/>
  <circle cx="250" cy="220" r="15" fill="#ffffff" opacity="0.9"/>
  <circle cx="300" cy="200" r="15" fill="#ffffff" opacity="0.8"/>
  <circle cx="350" cy="210" r="15" fill="#ffffff" opacity="0.7"/>
  
  <!-- Analysis grid overlay -->
  <path d="M100,80 L400,80" stroke="#ffffff" stroke-width="1" opacity="0.3"/>
  <path d="M100,140 L400,140" stroke="#ffffff" stroke-width="1" opacity="0.3"/>
  <path d="M100,200 L400,200" stroke="#ffffff" stroke-width="1" opacity="0.3"/>
  <path d="M100,260 L400,260" stroke="#ffffff" stroke-width="1" opacity="0.3"/>
  
  <path d="M100,80 L100,260" stroke="#ffffff" stroke-width="1" opacity="0.3"/>
  <path d="M175,80 L175,260" stroke="#ffffff" stroke-width="1" opacity="0.3"/>
  <path d="M250,80 L250,260" stroke="#ffffff" stroke-width="1" opacity="0.3"/>
  <path d="M325,80 L325,260" stroke="#ffffff" stroke-width="1" opacity="0.3"/>
  <path d="M400,80 L400,260" stroke="#ffffff" stroke-width="1" opacity="0.3"/>
  
  <!-- Heat map overlay -->
  <rect x="100" y="80" width="75" height="60" fill="#fd79a8" opacity="0.3"/>
  <rect x="175" y="80" width="75" height="60" fill="#fd79a8" opacity="0.5"/>
  <rect x="250" y="80" width="75" height="60" fill="#fd79a8" opacity="0.3"/>
  <rect x="325" y="80" width="75" height="60" fill="#fd79a8" opacity="0.4"/>
  
  <rect x="100" y="140" width="75" height="60" fill="#fd79a8" opacity="0.2"/>
  <rect x="175" y="140" width="75" height="60" fill="#fd79a8" opacity="0.6"/>
  <rect x="250" y="140" width="75" height="60" fill="#fd79a8" opacity="0.5"/>
  <rect x="325" y="140" width="75" height="60" fill="#fd79a8" opacity="0.3"/>
  
  <rect x="100" y="200" width="75" height="60" fill="#fd79a8" opacity="0.3"/>
  <rect x="175" y="200" width="75" height="60" fill="#fd79a8" opacity="0.2"/>
  <rect x="250" y="200" width="75" height="60" fill="#fd79a8" opacity="0.5"/>
  <rect x="325" y="200" width="75" height="60" fill="#fd79a8" opacity="0.2"/>
</svg>