<svg xmlns="http://www.w3.org/2000/svg" width="500" height="300" viewBox="0 0 500 300">
  <defs>
    <linearGradient id="grad1" x1="0%" y1="0%" x2="100%" y2="100%">
      <stop offset="0%" style="stop-color:#6c5ce7;stop-opacity:1" />
      <stop offset="100%" style="stop-color:#a29bfe;stop-opacity:1" />
    </linearGradient>
  </defs>
  <rect width="500" height="300" rx="15" fill="url(#grad1)"/>
  
  <!-- Face outline -->
  <circle cx="250" cy="150" r="80" fill="none" stroke="#ffffff" stroke-width="3"/>
  
  <!-- Eyes -->
  <circle cx="220" cy="130" r="10" fill="#ffffff"/>
  <circle cx="280" cy="130" r="10" fill="#ffffff"/>
  
  <!-- Facial recognition points -->
  <circle cx="220" cy="130" r="2" fill="#6c5ce7"/>
  <circle cx="280" cy="130" r="2" fill="#6c5ce7"/>
  <circle cx="250" cy="160" r="2" fill="#ffffff"/>
  <circle cx="230" cy="180" r="2" fill="#ffffff"/>
  <circle cx="270" cy="180" r="2" fill="#ffffff"/>
  <circle cx="200" cy="150" r="2" fill="#ffffff"/>
  <circle cx="300" cy="150" r="2" fill="#ffffff"/>
  
  <!-- Connection lines -->
  <line x1="220" y1="130" x2="280" y2="130" stroke="#ffffff" stroke-width="1" opacity="0.7"/>
  <line x1="220" y1="130" x2="250" y2="160" stroke="#ffffff" stroke-width="1" opacity="0.7"/>
  <line x1="280" y1="130" x2="250" y2="160" stroke="#ffffff" stroke-width="1" opacity="0.7"/>
  <line x1="250" y1="160" x2="230" y2="180" stroke="#ffffff" stroke-width="1" opacity="0.7"/>
  <line x1="250" y1="160" x2="270" y2="180" stroke="#ffffff" stroke-width="1" opacity="0.7"/>
  <line x1="200" y1="150" x2="300" y2="150" stroke="#ffffff" stroke-width="1" opacity="0.7"/>
  
  <!-- Check mark for attendance -->
  <circle cx="370" cy="80" r="30" fill="#ffffff" opacity="0.9"/>
  <path d="M355,80 L365,90 L385,70" stroke="#6c5ce7" stroke-width="5" fill="none" stroke-linecap="round" stroke-linejoin="round"/>
  
  <!-- Calendar icon -->
  <rect x="100" y="70" width="50" height="50" rx="5" fill="#ffffff" opacity="0.9"/>
  <rect x="110" y="85" width="10" height="10" fill="#6c5ce7"/>
  <rect x="130" y="85" width="10" height="10" fill="#6c5ce7"/>
  <rect x="110" y="100" width="10" height="10" fill="#6c5ce7"/>
  <rect x="130" y="100" width="10" height="10" fill="#6c5ce7"/>
</svg>