<svg xmlns="http://www.w3.org/2000/svg" width="600" height="400" viewBox="0 0 600 400">
  <defs>
    <linearGradient id="grad1" x1="0%" y1="0%" x2="100%" y2="100%">
      <stop offset="0%" style="stop-color:#6c5ce7;stop-opacity:1" />
      <stop offset="100%" style="stop-color:#a29bfe;stop-opacity:1" />
    </linearGradient>
  </defs>
  <rect width="600" height="400" rx="20" fill="url(#grad1)"/>
  
  <!-- Camera/Eye Icon -->
  <circle cx="300" cy="180" r="80" fill="#ffffff" opacity="0.9"/>
  <circle cx="300" cy="180" r="40" fill="#6c5ce7"/>
  <circle cx="300" cy="180" r="20" fill="#ffffff"/>
  
  <!-- Abstract Data Lines -->
  <path d="M100,300 Q200,100 300,300 T500,300" stroke="#ffffff" stroke-width="4" fill="none" opacity="0.7"/>
  <path d="M150,320 Q250,150 350,320 T550,320" stroke="#ffffff" stroke-width="2" fill="none" opacity="0.5"/>
  
  <!-- Face Recognition Points -->
  <circle cx="200" cy="100" r="5" fill="#ffffff"/>
  <circle cx="400" cy="100" r="5" fill="#ffffff"/>
  <circle cx="250" cy="150" r="5" fill="#ffffff"/>
  <circle cx="350" cy="150" r="5" fill="#ffffff"/>
  <circle cx="300" cy="120" r="5" fill="#ffffff"/>
  <circle cx="300" cy="220" r="5" fill="#ffffff"/>
  
  <!-- Connection Lines -->
  <line x1="200" y1="100" x2="400" y2="100" stroke="#ffffff" stroke-width="1" opacity="0.5"/>
  <line x1="200" y1="100" x2="300" y2="220" stroke="#ffffff" stroke-width="1" opacity="0.5"/>
  <line x1="400" y1="100" x2="300" y2="220" stroke="#ffffff" stroke-width="1" opacity="0.5"/>
  <line x1="250" y1="150" x2="350" y2="150" stroke="#ffffff" stroke-width="1" opacity="0.5"/>
  <line x1="300" y1="120" x2="300" y2="220" stroke="#ffffff" stroke-width="1" opacity="0.5"/>
</svg>