<svg width="600" height="400" viewBox="0 0 600 400" fill="none" xmlns="http://www.w3.org/2000/svg">
  <!-- Dashboard Background -->
  <rect width="600" height="400" rx="12" fill="#1E293B" />
  
  <!-- Header -->
  <rect x="20" y="20" width="560" height="60" rx="8" fill="#0F172A" />
  <circle cx="50" cy="50" r="15" fill="#8B5CF6" />
  <rect x="80" y="40" width="120" height="20" rx="4" fill="#334155" />
  <rect x="400" y="40" width="80" height="20" rx="4" fill="#334155" />
  <rect x="500" y="40" width="60" height="20" rx="4" fill="#8B5CF6" />
  
  <!-- Sidebar -->
  <rect x="20" y="100" width="160" height="280" rx="8" fill="#0F172A" />
  <rect x="40" y="120" width="120" height="10" rx="2" fill="#334155" />
  <rect x="40" y="140" width="120" height="10" rx="2" fill="#334155" />
  <rect x="40" y="160" width="120" height="10" rx="2" fill="#334155" />
  <rect x="40" y="190" width="120" height="30" rx="4" fill="#8B5CF6" opacity="0.2" />
  <rect x="40" y="230" width="120" height="10" rx="2" fill="#334155" />
  <rect x="40" y="250" width="120" height="10" rx="2" fill="#334155" />
  <rect x="40" y="270" width="120" height="10" rx="2" fill="#334155" />
  <rect x="40" y="290" width="120" height="10" rx="2" fill="#334155" />
  <rect x="40" y="310" width="120" height="10" rx="2" fill="#334155" />
  <rect x="40" y="330" width="120" height="10" rx="2" fill="#334155" />
  <rect x="40" y="350" width="120" height="10" rx="2" fill="#334155" />
  
  <!-- Main Content -->
  <rect x="200" y="100" width="380" height="120" rx="8" fill="#0F172A" />
  <rect x="220" y="120" width="200" height="20" rx="4" fill="#334155" />
  <rect x="220" y="150" width="340" height="10" rx="2" fill="#334155" />
  <rect x="220" y="170" width="340" height="10" rx="2" fill="#334155" />
  <rect x="220" y="190" width="160" height="10" rx="2" fill="#334155" />
  
  <!-- Charts and Graphs -->
  <rect x="200" y="240" width="180" height="140" rx="8" fill="#0F172A" />
  <circle cx="290" cy="310" r="50" fill="none" stroke="#8B5CF6" stroke-width="12" stroke-dasharray="251.2 62.8" />
  <circle cx="290" cy="310" r="50" fill="none" stroke="#EC4899" stroke-width="12" stroke-dasharray="94.2 219.8" />
  <circle cx="290" cy="310" r="50" fill="none" stroke="#06B6D4" stroke-width="12" stroke-dasharray="62.8 251.2" />
  <rect x="220" y="260" width="140" height="10" rx="2" fill="#334155" />
  
  <!-- Bar Chart -->
  <rect x="400" y="240" width="180" height="140" rx="8" fill="#0F172A" />
  <rect x="420" y="260" width="140" height="10" rx="2" fill="#334155" />
  <rect x="420" y="300" width="20" height="60" rx="2" fill="#8B5CF6" />
  <rect x="450" y="320" width="20" height="40" rx="2" fill="#EC4899" />
  <rect x="480" y="280" width="20" height="80" rx="2" fill="#06B6D4" />
  <rect x="510" y="340" width="20" height="20" rx="2" fill="#8B5CF6" />
  <rect x="540" y="310" width="20" height="50" rx="2" fill="#EC4899" />
  
  <!-- Glowing Effects -->
  <circle cx="290" cy="310" r="60" fill="#8B5CF6" opacity="0.1" />
  <circle cx="480" cy="320" r="70" fill="#06B6D4" opacity="0.1" />
  
  <!-- Faces Grid -->
  <rect x="200" y="200" width="30" height="30" rx="15" fill="#334155" />
  <rect x="240" y="200" width="30" height="30" rx="15" fill="#334155" />
  <rect x="280" y="200" width="30" height="30" rx="15" fill="#334155" />
  <rect x="320" y="200" width="30" height="30" rx="15" fill="#334155" />
  <rect x="360" y="200" width="30" height="30" rx="15" fill="#334155" />
</svg>